<?xml version="1.0" standalone="no"?>
<!DOCTYPE svg PUBLIC "-//W3C//DTD SVG 20010904//EN"
 "http://www.w3.org/TR/2001/REC-SVG-20010904/DTD/svg10.dtd">
<svg version="1.0" xmlns="http://www.w3.org/2000/svg"
 width="690.000000pt" height="690.000000pt" viewBox="0 0 690.000000 690.000000"
 preserveAspectRatio="xMidYMid meet">

<g transform="translate(0.000000,690.000000) scale(0.100000,-0.100000)"
fill="#000000" stroke="none">
<path d="M2334 5011 c-84 -24 -143 -66 -181 -130 -62 -103 -63 -121 -63 -833
0 -402 4 -667 11 -708 26 -163 117 -259 274 -290 43 -8 310 -10 950 -8 l890 3
56 23 c80 32 133 81 171 160 l33 67 3 720 c3 714 3 721 -19 788 -25 78 -80
147 -143 179 -94 48 -85 48 -1031 47 -814 0 -895 -2 -951 -18z m611 -386 c97
-17 221 -62 278 -100 l37 -26 0 -489 c0 -270 -4 -490 -8 -490 -4 0 -32 9 -62
19 -145 51 -328 64 -485 36 -44 -8 -81 -15 -83 -15 -1 0 -1 231 0 513 l3 512
36 18 c32 15 114 32 175 36 12 0 61 -6 109 -14z m935 -10 c28 -7 58 -19 66
-25 12 -11 14 -89 14 -516 0 -320 -4 -505 -10 -509 -5 -3 -27 -1 -47 5 -21 6
-94 14 -163 17 -135 6 -256 -10 -354 -48 -28 -10 -54 -19 -58 -19 -5 0 -8 223
-8 495 l0 495 93 45 c80 39 135 55 267 79 37 6 141 -3 200 -19z m-1410 -135
c19 -19 20 -33 20 -541 l0 -522 48 7 c122 17 308 25 406 16 143 -12 282 -46
300 -72 15 -21 11 -47 -8 -60 -16 -11 -848 -9 -866 2 -13 8 -15 85 -18 573 -2
559 -2 564 18 590 26 33 71 36 100 7z m1728 4 l22 -15 0 -573 c0 -431 -3 -575
-12 -584 -16 -16 -839 -17 -869 -2 -22 12 -25 52 -5 69 21 18 181 50 297 60
98 9 257 3 402 -15 l57 -7 0 526 0 526 22 15 c12 9 32 16 43 16 11 0 31 -7 43
-16z"/>
<path d="M2879 2833 c-4 -28 5 -70 17 -84 21 -23 18 -83 -6 -104 -11 -10 -20
-30 -20 -44 0 -15 9 -34 20 -44 13 -11 20 -29 20 -52 0 -23 -7 -41 -20 -52
-12 -11 -20 -30 -20 -50 0 -27 4 -33 21 -33 55 0 91 54 93 138 0 46 -3 57 -24
74 l-24 20 21 16 c42 34 37 147 -9 189 -25 23 -67 39 -69 26z"/>
<path d="M3423 2823 c-3 -7 -2 -25 2 -41 22 -84 52 -258 46 -262 -4 -3 -11
-20 -14 -38 -6 -28 -3 -34 17 -42 17 -6 26 -18 28 -37 3 -25 7 -28 46 -31 l43
-3 -7 38 c-3 21 -12 61 -19 88 -7 28 -25 114 -40 192 l-28 141 -35 4 c-22 3
-36 0 -39 -9z"/>
<path d="M2353 2823 l-23 -4 0 -225 0 -224 115 0 115 0 0 35 c0 35 0 35 -47
37 -27 0 -52 2 -58 3 -5 2 -16 3 -22 4 -10 1 -13 43 -13 175 0 145 -3 177 -16
190 -8 9 -18 15 -22 15 -4 -1 -17 -4 -29 -6z"/>
<path d="M2617 2824 c-4 -4 -7 -108 -7 -231 l0 -223 40 0 40 0 -2 228 -3 227
-30 3 c-17 2 -34 0 -38 -4z"/>
<path d="M2754 2817 c-2 -7 -3 -109 -2 -227 l3 -215 38 -3 37 -3 0 230 0 231
-35 0 c-20 0 -38 -6 -41 -13z"/>
<path d="M3047 2824 c-4 -4 -7 -108 -7 -231 l0 -223 40 0 40 0 -2 228 -3 227
-30 3 c-17 2 -34 0 -38 -4z"/>
<path d="M3167 2824 c-14 -14 -7 -55 14 -84 17 -22 20 -36 15 -63 -4 -19 -13
-38 -21 -41 -23 -8 -19 -68 5 -89 17 -14 20 -29 20 -97 l0 -80 41 0 41 0 -4
100 c-2 82 -6 101 -21 113 -18 12 -18 14 3 50 19 31 21 46 16 91 -5 36 -14 60
-29 74 -24 23 -69 37 -80 26z"/>
<path d="M3647 2824 c-4 -4 -7 -108 -7 -231 l0 -223 40 0 40 0 -2 228 -3 227
-30 3 c-17 2 -34 0 -38 -4z"/>
<path d="M3767 2823 c-14 -13 -7 -55 13 -80 11 -14 20 -38 20 -53 0 -15 -9
-39 -20 -53 -11 -14 -20 -34 -20 -45 0 -10 9 -27 20 -37 17 -15 20 -31 20
-102 l0 -83 40 0 40 0 0 95 c0 82 -3 98 -20 115 l-21 21 21 26 c23 29 27 91 9
143 -14 39 -82 74 -102 53z"/>
<path d="M3930 2819 c0 -6 18 -70 40 -143 33 -111 40 -147 40 -219 l0 -87 40
0 40 0 0 83 c0 67 -7 108 -42 229 l-43 148 -37 0 c-21 0 -38 -5 -38 -11z"/>
<path d="M4094 2791 c-8 -19 -17 -45 -20 -58 -7 -25 15 -123 27 -123 4 0 17
26 29 58 11 31 28 76 37 100 18 48 14 57 -29 57 -25 0 -32 -6 -44 -34z"/>
<path d="M3390 2677 c0 -2 -13 -71 -30 -152 -16 -81 -30 -150 -30 -152 0 -1
18 -3 40 -3 35 0 40 3 47 28 9 38 10 199 0 245 -4 20 -12 37 -17 37 -6 0 -10
-2 -10 -3z"/>
</g>
</svg>
